<svg width="135" height="160" viewBox="0 0 135 160" fill="none" xmlns="http://www.w3.org/2000/svg">
<path d="M83.517 160C81.9915 160 80.6949 159.467 79.6271 158.4C78.5593 157.333 78.0254 156.038 78.0254 154.514V125.257H5.49153C3.81356 125.257 2.44068 124.724 1.37288 123.657C0.457627 122.59 0 121.295 0 119.771V104.229C0 103.314 0.152542 102.248 0.457627 101.029C0.915254 99.6571 1.60169 98.4381 2.51695 97.3714L70.017 3.88572C72 1.29524 74.822 0 78.4831 0H103.424C104.949 0 106.246 0.533336 107.314 1.60001C108.381 2.66667 108.915 3.9619 108.915 5.48571V98.2857H129.28C131.11 98.2857 132.483 98.8191 133.398 99.8857C134.466 100.8 135 102.095 135 103.771V119.771C135 121.295 134.466 122.59 133.398 123.657C132.331 124.724 131.034 125.257 129.508 125.257H108.915V154.514C108.915 156.038 108.381 157.333 107.314 158.4C106.246 159.467 104.949 160 103.424 160H83.517ZM31.8051 99.2H78.7119V33.1429L31.8051 99.2Z" fill="#009854"/>
</svg>
