<svg width="375" height="160" viewBox="0 0 375 160" fill="none" xmlns="http://www.w3.org/2000/svg">
<path d="M204.567 0.190918H203.344V159.809H204.567V0.190918Z" fill="#58595B"/>
<path opacity="0.96" fill-rule="evenodd" clip-rule="evenodd" d="M298.23 116.968H273.091C266.375 116.968 260.928 111.434 260.928 104.603V55.3966C260.928 48.5655 266.375 43.032 273.091 43.032H362.837C369.553 43.032 375 48.5655 375 55.3966V104.603C375 111.427 369.553 116.968 362.837 116.968H298.23Z" fill="#74C044"/>
<path d="M264.347 72.2188H275.188V76.577C278.705 72.9745 282.291 71.5396 287.002 71.5396C294.477 71.5396 298.739 76.1954 298.739 84.988V107H287.822V86.4916C287.822 81.6831 286.401 79.3552 282.96 79.3552C279.518 79.3552 277.057 81.6068 275.188 84.8354V107H264.347V72.2188Z" fill="white"/>
<path d="M250.869 57.9307C254.516 57.9307 257.334 60.7623 257.334 64.4259C257.334 68.0895 254.516 70.9212 250.869 70.9212C247.223 70.9212 244.404 68.0056 244.404 64.4259C244.404 60.8463 247.223 57.9307 250.869 57.9307Z" fill="#74C044"/>
<path d="M257.107 72.0964H244.396V107.282H257.107V72.0964Z" fill="#74C044"/>
<path fill-rule="evenodd" clip-rule="evenodd" d="M333.337 66.2043C334.112 66.2043 334.871 66.4028 335.608 66.7997C336.345 67.2042 336.923 67.769 337.333 68.517C337.743 69.265 337.948 70.0359 337.948 70.8449C337.948 71.6539 337.743 72.4096 337.341 73.1499C336.938 73.8903 336.368 74.4627 335.631 74.8672C334.902 75.2717 334.134 75.4778 333.337 75.4778C332.539 75.4778 331.772 75.2717 331.042 74.8672C330.306 74.4627 329.736 73.8903 329.333 73.1499C328.923 72.4096 328.718 71.6387 328.718 70.8449C328.718 70.0511 328.923 69.265 329.341 68.517C329.751 67.7766 330.328 67.2042 331.073 66.7997C331.81 66.4028 332.569 66.2043 333.344 66.2043M336.68 68.9062C336.338 68.288 335.851 67.8072 335.236 67.4713C334.621 67.1355 333.99 66.9676 333.344 66.9676C332.699 66.9676 332.068 67.1355 331.453 67.4713C330.837 67.8072 330.359 68.2804 330.009 68.9062C329.66 69.5245 329.485 70.1732 329.485 70.8449C329.485 71.5166 329.66 72.1577 329.994 72.7683C330.336 73.3789 330.807 73.8597 331.422 74.2032C332.038 74.5467 332.676 74.7146 333.337 74.7146C333.998 74.7146 334.644 74.5467 335.251 74.2032C335.867 73.8597 336.338 73.3789 336.68 72.7683C337.021 72.1577 337.189 71.5166 337.189 70.8449C337.189 70.1732 337.014 69.5245 336.672 68.9062M334.833 72.0432C335.001 72.7683 335.122 73.272 335.228 73.4705H334.537C334.454 73.3255 334.34 72.8751 334.195 72.234C334.043 71.5166 333.762 71.2494 333.154 71.2265H332.524V73.4781H331.855V68.3643C332.19 68.2957 332.683 68.2499 333.132 68.2499C333.846 68.2499 334.309 68.3872 334.636 68.6849C334.887 68.9062 335.039 69.265 335.039 69.6695C335.039 70.3488 334.606 70.7991 334.066 70.9899V71.0128C334.454 71.1502 334.697 71.5242 334.826 72.0585M334.37 69.7382C334.37 69.0665 333.891 68.7765 333.185 68.7765C332.858 68.7765 332.638 68.807 332.524 68.8376V70.7228H333.208C333.922 70.7228 334.37 70.3335 334.37 69.7382Z" fill="white"/>
<path d="M333.967 112.526C333.967 114.174 333.656 115.617 333.041 116.96H320.414C322.724 116.289 323.954 115.052 323.954 113.297C323.954 110.824 321.083 109.221 315.947 109.221C310.454 109.221 307.636 110.717 307.636 113.19C307.636 115.045 308.767 116.281 310.971 116.953H298.245C297.835 115.976 297.63 114.945 297.63 113.808C297.63 109.732 300.76 106.74 306.815 105.145C304.148 104.321 302.758 102.932 302.758 100.863C302.758 98.1844 304.711 96.4289 308.608 95.5512C302.5 93.7499 299.886 90.8037 299.423 85.087C299.324 84.2093 299.324 82.0416 300.091 79.9809C303.168 71.4706 318.925 67.0362 318.925 67.0362L317.793 65.0288L325.39 67.3491L324.159 74.2565L322.572 72.501C315.081 75.0274 311.282 78.8436 310.097 81.8356C309.018 84.7206 309.687 90.6511 315.278 90.758C320.87 90.8572 323.081 86.3235 321.44 82.5606C319.745 78.7444 314.663 79.0039 314.663 79.0039L321.85 74.0504C323.567 74.5771 325.018 75.2716 326.203 75.9814C329.531 77.9888 331.947 81.4234 331.962 85.3236V85.3923C331.962 91.7349 328.216 95.3985 320.877 96.6884C316.106 97.5127 313.075 96.7418 313.075 99.4743C313.075 101.795 316.106 101.482 322.625 102.314C330.07 103.291 333.967 106.901 333.967 112.526Z" fill="white"/>
<path d="M124.586 55.0227L124.533 0.809082H38.8825V54.5724H38.9053V54.9082C39.0496 81.6448 50.8557 99.108 73.9512 106.863L76.0556 107.572C76.0556 107.572 77.1724 107.908 77.7498 108.061C79.4819 108.58 80.7127 108.885 81.8902 108.885C83.0678 108.885 84.2378 108.557 85.7876 108.061C86.8436 107.733 89.5482 106.763 89.5482 106.763C114.444 97.8944 125.916 80.9503 124.579 55.0227H124.586Z" fill="white"/>
<path d="M75.2199 39.8187L75.2503 1.39673H88.1884V39.8721H123.781V53.5114H88.1884V106.366L82.0726 108.671L75.2503 106.359V53.5114L39.6271 53.4503V39.8721L75.2199 39.8187Z" fill="#ED1C24"/>
<path d="M76.4962 45.505L76.4886 41.4598L80.3176 41.4522V40.5973H78.1144V38.6587H85.3014V40.5973H82.9842V41.4522H86.9196V45.505H87.7781V43.0703H89.7078V50.512H87.7781V48.184H86.9196V51.924H82.9842V52.7864H85.3546V54.7327H77.9017V52.7864H80.3176V51.924H76.4886V48.184H75.6378V50.6112H73.6929V43.0703H75.6302V45.505H76.4962Z" fill="white"/>
<path d="M57.0473 65.769C53.9476 65.769 51.4254 68.303 51.4254 71.4095C51.4254 74.5159 53.9476 77.0651 57.0473 77.0651C60.1469 77.0651 62.6616 74.5235 62.6616 71.4095C62.6616 68.2954 60.1393 65.769 57.0473 65.769ZM57.0473 76.0653C54.4946 76.0653 52.413 73.974 52.413 71.4095C52.413 68.8449 54.4946 66.7689 57.0473 66.7689C59.5999 66.7689 61.674 68.8526 61.674 71.4095C61.674 73.9663 59.5923 76.0653 57.0473 76.0653Z" fill="#2E3192"/>
<path d="M68.1545 73.9818V68.8527H65.9513C65.7614 68.1734 65.4879 67.5247 65.146 66.9065L66.7111 65.3342L63.1024 61.7087L61.545 63.281C60.922 62.9452 60.2762 62.6704 59.6077 62.4796V60.2585H54.5099V62.4796C53.8414 62.6704 53.188 62.9452 52.5651 63.281L51.0076 61.7087L47.3914 65.3342L48.9564 66.9065C48.6221 67.5171 48.3486 68.1734 48.1511 68.8527H45.9403V73.9818H48.1511C48.3486 74.6611 48.6145 75.3098 48.9564 75.9204L47.3914 77.4927L51.0076 81.1182L52.5651 79.5459C53.1728 79.8817 53.8262 80.1565 54.5099 80.3549V82.576H59.6077V80.3549C60.2914 80.1565 60.9372 79.8817 61.545 79.5459L63.1024 81.1182L66.7186 77.4927L65.146 75.9204C65.4879 75.3098 65.7614 74.6611 65.9513 73.9818H68.1545ZM65.0852 73.3712C64.8801 74.2184 64.5534 75.0122 64.0976 75.7525L63.9001 76.0883L65.3056 77.5004L63.0948 79.7138L61.6893 78.3018L61.355 78.5078C60.6257 78.9582 59.828 79.3016 58.9847 79.5001L58.6048 79.5917V81.5914H55.4824V79.5917L55.1025 79.5001C54.2592 79.3016 53.4615 78.9582 52.7246 78.5078L52.3979 78.3018L50.9848 79.7138L48.7741 77.5004L50.1719 76.0883L49.9668 75.7525C49.5186 75.0122 49.1919 74.2184 48.9868 73.3712L48.8956 72.9895H46.9128V69.845H48.8956L48.9868 69.4633C49.1919 68.6238 49.5186 67.83 49.9668 67.0896L50.1719 66.7538L48.7741 65.3418L50.9848 63.1207L52.3979 64.5327L52.7246 64.3267C53.4691 63.8763 54.2668 63.5482 55.1025 63.3421L55.4824 63.2505V61.2508H58.6048V63.2505L58.9847 63.3421C59.8128 63.5329 60.6105 63.8687 61.355 64.3267L61.6893 64.5327L63.0948 63.1207L65.3056 65.3418L63.9001 66.7538L64.0976 67.0896C64.5534 67.8376 64.8801 68.6314 65.0852 69.4633L65.1764 69.845H67.1669V72.9895H65.1764L65.0852 73.3712Z" fill="#2E3192"/>
<path d="M125.225 55.0227L125.171 0H38.2366V54.5647H38.2594V54.9082C38.4037 82.0493 50.3921 99.7643 73.8294 107.641L75.9643 108.359C75.9643 108.359 77.0962 108.694 77.6812 108.855C79.4362 109.381 80.6897 109.687 81.8825 109.687C83.0752 109.687 84.268 109.358 85.8406 108.855C86.9118 108.519 89.662 107.534 89.662 107.534C114.93 98.5279 126.569 81.3319 125.217 55.015L125.225 55.0227ZM43.8813 17.1655C43.9801 17.0128 44.5422 17.0052 44.8157 17.051C45.3248 17.1502 45.7198 17.6387 46.0085 17.8906C46.3124 16.9365 47.7179 17.051 47.8014 18.173C47.6419 18.3714 47.7179 18.4554 47.5887 18.6386C47.4216 18.8675 47.0037 18.921 46.9809 19.1499C46.943 19.4094 47.3912 19.6766 47.5507 19.8369C47.8014 20.0811 47.9686 20.2719 48.1661 20.4932C48.4092 20.5696 48.6067 20.6993 48.8195 20.8138C49.7235 20.8825 50.4301 20.4704 50.7947 19.8674C50.9999 19.5163 50.9847 19.2339 51.0454 18.7072C51.0758 18.4554 51.1518 18.2875 51.0151 18.0585C50.3085 18.089 50.1642 17.5471 49.9363 17.0892C50.0502 16.4328 50.4453 16.0817 51.0454 15.9214C51.281 16.0588 51.6 16.1046 51.828 16.2496C52.2154 16.7533 52.1926 17.5471 51.6912 17.9135C51.828 18.4859 52.5041 18.837 53.2031 19.0736C53.3702 19.127 53.4082 19.1194 53.6665 19.1805C53.7576 19.2034 53.8184 19.2797 53.8868 19.2873C54.9428 19.44 55.5126 18.982 56.0748 18.5622C56.2799 18.0814 56.6522 17.7456 56.7206 17.1121C56.4547 17.0586 56.3027 17.2723 56.0748 17.2952C55.1403 17.3945 54.3426 16.3641 54.6389 15.3795C54.8289 15.0055 55.1024 14.7307 55.467 14.5323C55.7709 14.517 56.0064 14.5323 56.2191 14.5017C56.3331 14.3415 56.1888 14.1812 56.1508 14.0667C55.9608 12.3799 56.9409 11.5861 57.3967 10.4413H57.4727C58.1184 10.8916 58.2628 11.8685 58.7262 12.5097C58.749 12.9218 59.0149 13.1966 58.9769 13.5935C58.9465 13.8835 58.749 14.1506 58.7946 14.5017C59.7139 14.4559 60.1317 14.9139 60.4508 15.4787C60.6331 16.8449 59.448 17.6082 58.4071 17.0739C58.3008 17.9822 58.9845 18.4172 59.41 18.9133C59.9418 19.2415 60.7623 19.3942 61.598 19.1652C62.2285 18.9973 63.2845 18.3638 63.3149 18.0127C63.3377 17.7913 62.9731 17.5395 62.9275 17.2876C62.7983 16.6083 63.163 16.4251 63.4669 16.0511C63.8923 15.9595 64.0063 15.9748 64.4317 16.0511C65.3206 16.3717 65.199 18.1959 63.9683 18.0432C63.7556 19.4476 64.4545 20.6306 65.5485 20.8062C66.0271 20.8825 66.3766 20.7146 66.6957 20.5161C67.3186 20.1193 67.6605 19.6384 68.0936 19.1041C68.048 18.9286 67.8353 18.9286 67.6681 18.8828C67.1819 18.6233 67.1363 17.57 67.6681 17.3258C67.8125 17.28 68.0024 17.28 68.0936 17.1731C68.5038 17.2571 68.8305 17.4174 68.952 17.7913C69.4459 17.3487 70.2208 16.7991 71.216 17.1044C70.8741 17.5929 70.3271 17.8982 69.9625 18.3714C69.613 18.8217 69.3319 19.3636 68.99 19.8521C68.8229 20.0964 68.6406 20.3253 68.4962 20.5772C67.7441 21.7908 66.9844 23.2791 66.5209 24.7827H48.584C48.2725 24.0271 48.037 23.3554 47.6875 22.5693C47.6115 22.4014 47.4596 22.2716 47.3608 22.1037C47.2544 21.9129 47.2165 21.6763 47.1101 21.4855C46.753 20.8596 46.3428 20.2261 45.9629 19.6384C45.5831 19.0431 45.2488 18.6309 44.8157 18.1195C44.6486 17.9211 44.4891 17.6692 44.3447 17.5318C44.208 17.4021 43.8585 17.3945 43.9117 17.135L43.8813 17.1655ZM66.6273 26.439C66.3918 27.103 65.5789 27.0496 64.766 27.0496H49.9439C49.4956 27.0496 49.131 27.0877 48.8271 26.9427C48.0142 26.5534 48.2573 25.4696 49.0854 25.2407C53.8412 25.1796 59.0301 25.2101 63.9379 25.2101C65.2446 25.2101 66.8628 24.9048 66.6273 26.439ZM73.8598 106.061C51.7292 98.3065 40.227 81.0876 39.68 54.8471H73.8598V106.061ZM116.024 77.9201L106.832 77.2256C106.505 77.4317 106.186 77.569 105.882 77.6759C105.578 77.7751 105.282 77.8209 104.986 77.8209C104.682 77.8209 104.347 77.7751 104.021 77.6759C103.679 77.569 103.337 77.4317 102.972 77.2256L93.7189 77.9201V63.7313L94.9193 63.6703L94.5166 64.4564V77.0271L103.276 76.4852C103.686 76.8363 104.226 77.0195 104.864 77.0195C105.502 77.0195 106.057 76.8363 106.475 76.4852L115.196 77.0271V64.4564L114.664 63.5711L116.024 63.6397V77.9201ZM98.7331 74.0276C99.432 73.9436 100.078 73.8978 100.678 73.8978C101.977 73.8978 102.927 74.0963 103.542 74.5008C104.135 74.89 104.492 75.5541 104.598 76.4776C104.059 76.3478 103.679 76.1341 103.436 75.8365L95.4815 76.4776L96.5223 74.4092C97.3048 74.2336 98.0493 74.1115 98.7331 74.0276ZM96.6742 73.8215V62.0369C97.396 61.8537 98.1101 61.7164 98.7862 61.6171C99.4776 61.5332 100.146 61.4874 100.807 61.4874C102.083 61.4874 103.025 61.7393 103.664 62.243C104.302 62.7544 104.613 63.5176 104.613 64.5404V74.7298C103.793 73.8139 102.456 73.3635 100.579 73.3635C100.131 73.3635 99.5688 73.4017 98.9154 73.4704C98.2696 73.5467 97.5099 73.6536 96.6818 73.8139L96.6742 73.8215ZM96.1272 73.8902L95.056 75.9815V64.5709L96.1272 62.6094V73.8978V73.8902ZM114.345 76.4852L106.361 75.8365C106.08 76.1799 105.669 76.3936 105.145 76.4852C105.145 74.7603 106.429 73.9054 108.982 73.9054C109.574 73.9054 110.228 73.9436 110.957 74.0352C111.679 74.1192 112.461 74.2565 113.297 74.4397L114.345 76.4852ZM113.593 73.8902V62.6552L114.664 64.693V75.9357L113.593 73.8902ZM113.054 73.8444C112.385 73.6841 111.709 73.562 111.048 73.4857C110.387 73.4093 109.719 73.3712 109.058 73.3712C108.07 73.3712 107.288 73.478 106.718 73.6765C106.148 73.8673 105.616 74.2413 105.115 74.7679V64.5709C105.115 63.51 105.381 62.762 105.935 62.327C106.634 61.7698 107.645 61.495 108.997 61.495C109.551 61.495 110.167 61.5332 110.835 61.6248C111.519 61.7164 112.248 61.8461 113.054 62.0217V73.8444ZM123.773 53.5191H88.1806V106.374C87.3828 106.649 82.7789 107.717 81.8825 107.717C81.0392 107.717 75.987 106.588 75.2425 106.366V53.5114L39.6193 53.4504V39.8722H75.2121V39.8187H75.2425V1.39675H88.1806V39.8722H123.773V53.5114V53.5191ZM123.773 38.483H89.5708V1.35858H123.773V38.4754V38.483Z" fill="#2E3192"/>
<path d="M108.8 14.7153C109.309 14.555 109.005 13.975 110.646 13.7536C111.58 13.6315 111.466 12.7232 113.563 13.1506C114.505 13.3415 114.801 13.9292 115.044 14.7306C114.087 14.2803 112.887 14.5321 113.388 14.4863C114.262 14.3718 114.642 15.6388 114.718 15.9441C113.73 14.9595 112.704 15.4709 112.682 15.6694C113.639 15.5167 114.216 16.3563 114.254 16.5471C113.031 16.1273 110.934 17.9973 110.114 16.28C109.825 15.6923 108.215 15.2496 108.784 14.7077L108.8 14.7153Z" fill="#ED1C24"/>
<path d="M99.8349 12.1357H100.997L101.673 10.6016L102.6 12.3418H103.709L105.267 11.3801L103.709 13.5477C102.547 13.3187 101.142 13.3187 99.493 13.5477L98.361 11.403L99.8425 12.1357H99.8349Z" fill="#ED1C24"/>
<path d="M119.853 32.3008C119.2 32.7129 116.389 32.5069 116.389 32.5069C116.389 32.5069 115.888 30.6445 117.149 30.6445C118.41 30.6445 120.507 31.9115 119.853 32.3008Z" fill="#ED1C24"/>
<path d="M109.377 31.3162C108.731 31.7207 105.913 31.5222 105.913 31.5222C105.913 31.5222 105.419 29.6599 106.672 29.6599C107.926 29.6599 110.038 30.9193 109.377 31.3238V31.3162Z" fill="#ED1C24"/>
<path d="M98.6345 31.8351C97.9811 32.2396 95.1777 32.0335 95.1777 32.0335C95.1777 32.0335 94.6763 30.1636 95.9222 30.1636C97.1682 30.1636 99.2802 31.4229 98.6345 31.8351Z" fill="#ED1C24"/>
<path d="M92.9214 18.9286C92.9214 18.9286 94.7751 18.4249 94.7751 19.6842C94.7751 20.9436 93.5215 23.0654 93.1189 22.409C92.7086 21.7526 92.9138 18.9286 92.9138 18.9286H92.9214Z" fill="#ED1C24"/>
<path d="M118.638 26.5918C118.797 25.7904 117.696 24.5234 117.392 24.2715C117.217 24.1265 117.293 23.8593 117.384 23.638C116.769 23.0732 116.108 22.8671 116.108 22.8671L116.146 22.6687C116.146 22.6687 116.83 22.89 117.468 23.4396C117.506 23.3632 117.544 23.3098 117.544 23.3098C120.104 22.6076 121.312 19.7302 119.899 18.2189C118.501 16.7153 116.64 16.6543 114.376 17.5244C112.119 18.3716 110.516 18.425 109.81 18.1731C108.291 17.6312 108.503 15.0438 108.503 15.0438C106.399 19.2035 110.106 19.4707 111.664 19.234C113.297 18.9745 114.315 18.3639 116.632 18.6769C118.342 18.8982 118.554 20.2034 117.886 20.9895C117.134 21.8673 115.835 21.3406 115.835 21.3406C114.832 20.5392 109.863 21.0506 108.663 21.1498C107.462 21.249 106.498 20.1881 106.498 20.1881L105.776 18.5853C105.943 19.776 105.844 20.9972 105.244 21.6917C105.594 20.0126 104.705 19.547 105.32 17.5854L104.196 15.0972C103.2 13.3799 99.3486 14.5172 99.3486 14.5172C99.3486 14.5172 97.2442 16.0284 96.211 16.5474C95.9147 16.7001 96.72 20.1728 97.3429 19.8828C97.6772 19.7302 99.4702 19.3333 99.4702 19.3333V20.9972L98.718 22.9129L94.6156 22.2031L93.8558 22.9129L94.1597 23.3632L94.3876 23.6304C96.0894 23.9204 100.025 27.0345 100.025 27.0345C99.3714 27.4466 97.2974 29.9043 97.2974 29.9043L99.0751 31.011L102.479 27.294C106.589 28.8052 109.453 25.4774 109.901 25.8743C110.357 26.2788 109.757 26.7826 109.954 27.7443C110.076 28.3015 109.954 29.4082 109.954 29.4082L108.929 29.828L109.909 30.6752C109.909 30.6752 110.714 30.6752 111.573 30.1714C112.165 29.828 112.218 28.0572 112.021 27.7519C111.846 27.4924 112.651 26.8589 112.864 26.6834C111.755 24.9889 109.749 25.2179 109.726 25.2256L109.696 25.0271C109.696 25.0271 112.097 24.7142 113.221 26.8589L113.191 26.8742C116.518 29.8203 119.101 28.2557 119.101 28.2557C119.101 28.2557 119.39 29.37 119.246 30.8354L120.309 32.0795L121.16 26.7979C121.16 26.7979 118.501 27.4008 118.645 26.5994L118.638 26.5918ZM99.3106 15.7994C99.1359 15.8376 98.9839 15.8071 98.9612 15.7231C98.946 15.6315 99.0599 15.5247 99.2195 15.4789C99.3942 15.4331 99.5461 15.4789 99.5689 15.5552C99.5917 15.6544 99.4778 15.7536 99.3106 15.7994ZM100.382 25.882C99.85 24.7294 100.306 24.0273 99.6525 21.623C100.807 22.974 100.724 24.241 100.382 25.882ZM100.792 16.7993C100.792 15.6239 100.534 15.1812 100.534 15.1812L100.845 15.1965C100.929 15.6697 100.792 16.7993 100.792 16.7993ZM102.524 23.2716C101.848 20.6461 102.813 19.8904 103.443 16.7535C104.196 19.6004 102.509 20.8445 102.524 23.2716ZM104.082 27.2405V26.0957C105.039 26.691 106.589 26.6452 108.739 25.9506C106.27 27.813 104.082 27.2405 104.082 27.2405Z" fill="#ED1C24"/>
<path d="M105.373 129.501H106.984C106.984 130.898 106.619 131.821 105.935 132.249C105.236 132.684 104.066 132.89 102.418 132.89C100.131 132.89 98.7559 132.5 98.2849 131.714C97.8443 130.928 97.6088 129.692 97.6088 127.982C97.6088 126.44 97.9202 125.334 98.5584 124.647C99.189 123.96 100.473 123.616 102.395 123.616C103.595 123.616 104.621 123.784 105.495 124.105C106.368 124.425 106.801 125.196 106.801 126.41V126.532C106.801 126.532 106.779 126.593 106.779 126.616V126.7H105.191C105.191 125.883 104.993 125.349 104.598 125.097C104.203 124.845 103.527 124.723 102.593 124.723C101.141 124.723 100.237 124.914 99.8651 125.288C99.4853 125.677 99.3029 126.517 99.3029 127.806V128.715C99.3029 129.737 99.4397 130.501 99.7284 131.012C100.002 131.523 100.845 131.775 102.251 131.775C103.466 131.775 104.287 131.653 104.72 131.417C105.145 131.172 105.373 130.539 105.373 129.501Z" fill="#2E368F"/>
<path d="M109.339 128.012C109.339 126.471 109.62 125.341 110.167 124.624C110.714 123.914 111.99 123.547 113.966 123.547C116.055 123.547 117.4 123.853 118.015 124.463C118.638 125.059 118.942 126.219 118.942 127.936C118.942 129.432 118.76 130.63 118.372 131.561C117.992 132.485 116.685 132.943 114.459 132.943C112.515 132.943 111.185 132.691 110.448 132.187C109.711 131.684 109.339 130.577 109.339 128.875V128.012ZM111.041 127.982V129.165C111.041 129.31 111.056 129.463 111.056 129.608C111.094 129.974 111.147 130.34 111.246 130.676C111.337 131.012 111.481 131.279 111.694 131.455C111.854 131.592 112.059 131.676 112.317 131.729C112.56 131.783 112.819 131.813 113.1 131.829H114.186C115.12 131.829 115.835 131.722 116.344 131.493C116.845 131.279 117.126 130.737 117.187 129.875C117.202 129.684 117.21 129.508 117.225 129.34C117.232 129.173 117.232 128.997 117.232 128.814C117.255 128.646 117.263 128.478 117.263 128.295V127.776C117.263 126.654 117.134 125.86 116.898 125.372C116.647 124.891 115.857 124.654 114.543 124.654H114.194C112.788 124.654 111.914 124.83 111.573 125.204C111.223 125.562 111.048 126.402 111.048 127.684V127.982H111.041Z" fill="#2E368F"/>
<path d="M123.227 119.815V132.813H121.578V119.815H123.227Z" fill="#2E368F"/>
<path d="M127.717 119.815V132.813H126.068V119.815H127.717Z" fill="#2E368F"/>
<path d="M138.231 130.042H139.903C139.903 131.378 139.485 132.195 138.626 132.477C137.768 132.76 136.666 132.905 135.276 132.905C133.247 132.905 131.926 132.584 131.318 131.935C130.725 131.286 130.406 130.126 130.406 128.485C130.406 126.844 130.649 125.684 131.113 124.845C131.584 123.997 132.883 123.578 135.04 123.578C137.084 123.578 138.383 123.868 138.983 124.44C139.576 125.013 139.88 126.135 139.903 127.829V128.508H132.077C132.077 129.523 132.222 130.332 132.48 130.935C132.731 131.554 133.582 131.867 135.04 131.867H135.982C136.15 131.867 136.355 131.851 136.552 131.821C136.788 131.805 137.023 131.767 137.236 131.722C137.449 131.676 137.631 131.599 137.791 131.508C137.942 131.416 138.041 131.302 138.102 131.149C138.155 130.996 138.186 130.844 138.208 130.699C138.224 130.638 138.231 130.584 138.231 130.516V130.05V130.042ZM138.277 127.447C138.277 126.325 138.125 125.57 137.806 125.188C137.479 124.814 136.613 124.623 135.185 124.623C133.924 124.623 133.103 124.814 132.7 125.211C132.305 125.6 132.115 126.356 132.115 127.447H138.277Z" fill="#2E368F"/>
<path d="M151.671 123.723V133.386C151.671 134.783 151.283 135.714 150.493 136.156C149.726 136.607 148.525 136.836 146.922 136.836C145.54 136.836 144.476 136.66 143.754 136.324C143.025 135.981 142.668 135.164 142.668 133.851L144.18 133.874C144.233 134.691 144.438 135.195 144.81 135.416C145.183 135.622 145.828 135.729 146.748 135.729C147.811 135.729 148.639 135.607 149.239 135.378C149.824 135.141 150.106 134.515 150.106 133.485V131.699C149.817 132.165 149.399 132.493 148.844 132.645C148.29 132.806 147.72 132.882 147.135 132.897C147.036 132.913 146.945 132.92 146.839 132.92H146.527C144.78 132.92 143.64 132.531 143.101 131.752C142.569 130.982 142.296 129.936 142.296 128.638C142.296 127.196 142.508 126.005 142.926 125.043C143.359 124.097 144.605 123.616 146.672 123.616C147.393 123.616 148.069 123.7 148.67 123.86C149.277 124.021 149.779 124.372 150.181 124.906L150.106 123.731H151.671V123.723ZM143.997 128.234V128.562C143.997 129.585 144.134 130.386 144.392 130.943C144.658 131.508 145.517 131.791 146.975 131.791C147.834 131.791 148.525 131.653 149.05 131.378C149.566 131.096 149.878 130.577 149.954 129.806C149.984 129.547 150.014 129.287 150.022 129.02C150.037 128.753 150.045 128.493 150.045 128.234C150.045 127.165 149.908 126.318 149.657 125.677C149.391 125.036 148.495 124.723 146.975 124.723C145.775 124.723 144.977 124.914 144.582 125.303C144.187 125.677 143.997 126.417 143.997 127.494V128.234Z" fill="#2E368F"/>
<path d="M161.836 130.042H163.515C163.515 131.378 163.081 132.195 162.238 132.477C161.387 132.76 160.263 132.905 158.88 132.905C156.852 132.905 155.537 132.584 154.93 131.935C154.314 131.286 154.018 130.126 154.018 128.485C154.018 126.844 154.254 125.684 154.717 124.845C155.18 123.997 156.487 123.578 158.645 123.578C160.681 123.578 161.995 123.868 162.588 124.44C163.18 125.013 163.499 126.135 163.507 127.829V128.508H155.689C155.689 129.523 155.819 130.332 156.069 130.935C156.32 131.554 157.186 131.867 158.637 131.867H159.579C159.761 131.867 159.951 131.851 160.157 131.821C160.384 131.805 160.605 131.767 160.833 131.722C161.053 131.676 161.235 131.599 161.387 131.508C161.539 131.416 161.646 131.302 161.706 131.149C161.76 130.996 161.79 130.844 161.813 130.699C161.813 130.638 161.828 130.584 161.828 130.516V130.05L161.836 130.042ZM161.889 127.447C161.889 126.325 161.729 125.57 161.41 125.188C161.091 124.814 160.217 124.623 158.789 124.623C157.543 124.623 156.707 124.814 156.32 125.211C155.917 125.6 155.727 126.356 155.727 127.447H161.889Z" fill="#2E368F"/>
<path d="M21.4924 125.951H19.8666C19.8666 125.448 19.7755 125.104 19.5855 124.891C19.4032 124.684 18.9929 124.57 18.3776 124.547C18.0813 124.532 17.785 124.524 17.4811 124.524H16.2276C16.106 124.524 15.9845 124.532 15.8629 124.547C15.6426 124.555 15.4147 124.585 15.1868 124.631C14.974 124.662 14.7765 124.738 14.6094 124.845C14.465 124.936 14.3739 125.036 14.3359 125.165C14.2827 125.287 14.2599 125.425 14.2371 125.57V125.883C14.2371 126.432 14.3511 126.814 14.5562 127.02C14.7613 127.211 15.1943 127.341 15.8629 127.363C16.068 127.363 16.2732 127.379 16.4859 127.379H17.1012C18.294 127.379 19.3804 127.524 20.3528 127.745C21.3329 127.974 21.8191 128.73 21.8191 129.981C21.8191 131.309 21.3937 132.103 20.5428 132.378C19.6919 132.653 18.5903 132.79 17.238 132.79H16.8657C15.7641 132.775 14.7613 132.63 13.8572 132.378C12.938 132.119 12.4897 131.432 12.4897 130.294V130.165C12.4897 130.119 12.5049 130.073 12.5125 130.042C12.5125 130.004 12.5125 129.959 12.5201 129.905C12.5201 129.875 12.5277 129.821 12.5277 129.783H14.1611C14.1611 130.623 14.3511 131.164 14.7309 131.386C15.1108 131.63 15.7641 131.745 16.7138 131.745H17.6103C17.8002 131.737 17.9901 131.722 18.1952 131.714C18.4535 131.706 18.7119 131.668 18.9778 131.615C19.2437 131.569 19.4564 131.493 19.6235 131.386C19.7831 131.302 19.897 131.172 19.9654 131.012C20.0338 130.859 20.0717 130.699 20.0869 130.531C20.1021 130.447 20.1097 130.371 20.1097 130.287V130.058C20.1097 129.34 19.897 128.921 19.4488 128.806C19.0081 128.692 18.4611 128.63 17.823 128.63H17.7242C17.633 128.615 17.5267 128.608 17.4355 128.608H17.124C17.0481 128.608 16.9721 128.608 16.8961 128.608C16.8126 128.592 16.7366 128.585 16.6606 128.585C15.5514 128.547 14.5942 128.417 13.7965 128.195C12.9988 127.966 12.5961 127.28 12.5961 126.142C12.5961 126.013 12.5961 125.906 12.6037 125.791C12.6113 125.669 12.6265 125.524 12.6417 125.402C12.6721 125.142 12.7405 124.891 12.8468 124.646C12.9608 124.417 13.1431 124.204 13.3862 124.059C13.6521 123.883 13.956 123.753 14.3207 123.669C14.6701 123.585 15.05 123.509 15.4375 123.479C15.6958 123.463 15.9541 123.433 16.2124 123.433C16.4707 123.425 16.7062 123.417 16.9189 123.417H17.5343C17.7394 123.417 17.9521 123.425 18.1649 123.44C19.0081 123.479 19.7755 123.631 20.4668 123.914C21.1581 124.181 21.5 124.761 21.5 125.616V125.791C21.5 125.791 21.4696 125.837 21.4696 125.875V125.951H21.4924Z" fill="#ED1C24"/>
<path d="M26.0583 119.677V132.668H24.4097V119.677H26.0583Z" fill="#ED1C24"/>
<path d="M30.4039 119.677V121.181H28.7553V119.677H30.4039ZM30.4039 123.57V132.668H28.7553V123.57H30.4039Z" fill="#ED1C24"/>
<path d="M33.0934 123.57H34.6128V124.738C35.0383 124.188 35.5701 123.814 36.2158 123.639C36.8692 123.471 37.5681 123.379 38.3051 123.379C39.7865 123.379 40.8121 123.608 41.4047 124.089C41.9897 124.555 42.286 125.41 42.286 126.646V132.668H40.6374V126.761C40.6374 125.845 40.4551 125.234 40.1208 124.929C39.7865 124.639 39.0572 124.494 37.9632 124.494C36.8692 124.494 36.1323 124.685 35.5701 125.097C35.0079 125.501 34.7268 126.165 34.7268 127.081V132.668H33.0934V123.57Z" fill="#ED1C24"/>
<path d="M54.1985 123.593V133.256C54.1985 134.66 53.811 135.584 53.0209 136.026C52.2384 136.477 51.0456 136.698 49.4578 136.698C48.0524 136.698 46.9963 136.53 46.2822 136.187C45.5605 135.851 45.1958 135.034 45.1958 133.714L46.7077 133.737C46.7608 134.561 46.966 135.072 47.3382 135.278C47.7105 135.492 48.3562 135.591 49.2755 135.591C50.3391 135.591 51.1596 135.469 51.7598 135.24C52.3524 135.004 52.6411 134.378 52.6411 133.363V131.569C52.3524 132.05 51.9345 132.363 51.3799 132.515C50.8329 132.683 50.2631 132.752 49.6706 132.767C49.5718 132.783 49.473 132.79 49.3591 132.79H49.0628C47.3078 132.79 46.1607 132.393 45.6288 131.615C45.1046 130.836 44.8235 129.798 44.8235 128.501C44.8235 127.066 45.0439 125.86 45.4693 124.906C45.9023 123.952 47.1407 123.479 49.1995 123.479C49.9289 123.479 50.605 123.555 51.1976 123.723C51.8054 123.883 52.3068 124.227 52.7094 124.761L52.6411 123.585H54.2061L54.1985 123.593ZM46.5177 128.096V128.417C46.5177 129.447 46.6545 130.249 46.9128 130.798C47.1711 131.363 48.0372 131.653 49.4882 131.653C50.3391 131.653 51.0305 131.508 51.5547 131.233C52.0865 130.951 52.3904 130.424 52.4663 129.668C52.5043 129.409 52.5195 129.142 52.5423 128.882C52.5499 128.615 52.5651 128.348 52.5651 128.096C52.5651 127.028 52.4207 126.18 52.17 125.539C51.9041 124.906 51.0077 124.585 49.4882 124.585C48.2879 124.585 47.4902 124.776 47.0951 125.158C46.7077 125.539 46.5177 126.28 46.5177 127.363V128.096Z" fill="#ED1C24"/>
<path d="M63.6873 123.593V124.662H59.4936V130.256C59.4936 130.775 59.5924 131.149 59.7823 131.355C59.9646 131.569 60.3901 131.683 61.0359 131.683C61.7576 131.683 62.2058 131.523 62.3502 131.225C62.4945 130.935 62.5705 130.546 62.5705 130.065V129.455H64.1051C64.1051 130.409 63.938 131.187 63.5961 131.836C63.2618 132.462 62.3882 132.79 61.0131 132.79C59.8051 132.79 58.977 132.599 58.5212 132.248C58.0729 131.882 57.8526 131.218 57.8526 130.256V124.662H56.4319V123.593H57.8526V121.387H59.4936V123.593H63.6873Z" fill="#ED1C24"/>
<path d="M66.0652 127.875C66.0652 126.326 66.3463 125.196 66.8933 124.494C67.4479 123.769 68.7166 123.41 70.6995 123.41C72.6824 123.41 74.1258 123.715 74.7488 124.318C75.3642 124.929 75.668 126.074 75.668 127.791C75.668 129.287 75.4857 130.493 75.1059 131.424C74.726 132.34 73.4193 132.798 71.1857 132.798C69.2484 132.798 67.9113 132.554 67.1744 132.035C66.4299 131.539 66.0652 130.424 66.0652 128.722V127.868V127.875ZM67.767 127.852V129.028C67.767 129.18 67.7746 129.318 67.7898 129.463C67.8201 129.852 67.8733 130.203 67.9721 130.539C68.0633 130.89 68.2076 131.142 68.4051 131.325C68.5723 131.462 68.785 131.546 69.0281 131.6C69.2712 131.646 69.5371 131.691 69.8106 131.707H70.897C71.8315 131.707 72.5532 131.585 73.0622 131.371C73.5636 131.15 73.8371 130.615 73.9055 129.745C73.9207 129.562 73.9283 129.394 73.9359 129.218C73.9435 129.043 73.9435 128.867 73.9435 128.692C73.9663 128.524 73.9663 128.348 73.9663 128.165V127.646C73.9663 126.532 73.8447 125.73 73.6016 125.25C73.3509 124.761 72.5684 124.524 71.2465 124.524H70.897C69.4915 124.524 68.6254 124.708 68.276 125.074C67.9341 125.448 67.7518 126.272 67.7518 127.555V127.852H67.767Z" fill="#ED1C24"/>
<path d="M78.2969 123.57H79.8087V124.738C80.2342 124.188 80.7584 123.814 81.4117 123.639C82.0651 123.471 82.7564 123.379 83.5086 123.379C84.9748 123.379 86.0156 123.608 86.6006 124.089C87.2008 124.555 87.4895 125.41 87.4895 126.646V132.668H85.8409V126.761C85.8409 125.845 85.6738 125.234 85.3243 124.929C84.9824 124.639 84.2683 124.494 83.1591 124.494C82.1259 124.494 81.3282 124.685 80.766 125.097C80.2114 125.501 79.9303 126.165 79.9303 127.081V132.668H78.3045V123.57H78.2969Z" fill="#ED1C24"/>
<path d="M8.72158 116.815H8.53165C7.80991 116.854 7.21733 117.09 6.74631 117.541C6.29047 117.968 6.07016 118.464 6.10814 119.036C6.13853 119.617 6.39684 120.075 6.90585 120.464C7.37687 120.815 7.93147 120.998 8.56963 120.998H8.74437C9.4661 120.96 10.0587 120.723 10.5449 120.281C11.0007 119.853 11.2211 119.349 11.1983 118.777C11.1679 118.205 10.9096 117.739 10.4082 117.357C9.93713 116.991 9.38253 116.815 8.73677 116.815H8.72158Z" fill="#ED1C24"/>
<path d="M5.4928 133.355C5.99421 133.469 6.50323 133.538 7.05022 133.538C8.64564 133.538 10.1119 133.004 11.2895 132.103C10.8412 131.607 10.4766 131.027 10.2031 130.409C8.93433 132.118 6.8375 133.279 5.4928 133.355Z" fill="#ED1C24"/>
<path d="M10.9855 120.609C10.9855 120.609 10.9476 120.662 10.9172 120.7C10.3474 121.242 9.61805 121.532 8.76717 121.578H8.56204C7.80232 121.578 7.13377 121.357 6.55638 120.922C6.04737 120.54 5.72829 120.075 5.59914 119.54C2.40072 120.204 0 123.051 0 126.463C0 129.211 1.57262 131.592 3.84418 132.76C3.67704 132.561 3.55549 132.325 3.54789 132.05C3.5327 131.783 3.59348 131.439 3.71503 131.012L5.25726 125.723C5.40921 125.211 5.46998 124.837 5.45479 124.578C5.44719 124.425 5.35603 124.288 5.18889 124.166C5.02175 124.059 4.78624 124.005 4.50514 124.021C4.36839 124.021 4.21645 124.043 4.03411 124.059L4.17846 123.616L8.54685 122.792L9.32176 122.746L7.0578 130.615C6.94384 131.058 6.87547 131.348 6.88306 131.493C6.88306 131.577 6.93624 131.645 7.00462 131.699C7.08819 131.768 7.17935 131.79 7.26292 131.79C7.41487 131.79 7.71875 131.699 7.8707 131.6C8.59243 131.134 9.46611 130.523 9.99032 129.829C9.80039 129.256 9.67883 128.653 9.67883 128.005C9.67883 125.662 11.0235 123.639 12.9684 122.631C12.4518 121.83 11.7681 121.135 10.9704 120.594L10.9855 120.609Z" fill="#ED1C24"/>
<path d="M22.2522 159.191C21.257 157.68 20.5884 156.497 20.239 155.642C19.73 154.413 19.4792 153.062 19.4792 151.574C19.4792 150.085 19.7376 148.841 20.239 147.62C20.596 146.75 21.2494 145.59 22.2066 144.117H23.4374C22.5941 145.689 22.0471 146.887 21.7812 147.712C21.3937 148.895 21.1962 150.207 21.1962 151.642C21.1962 153.077 21.3937 154.413 21.7812 155.596C22.0623 156.436 22.6245 157.634 23.4602 159.191H22.2522Z" fill="#58595B"/>
<path d="M33.9519 147.773H32.1134V150.383H27.9501C27.3651 150.383 27.0764 150.582 27.0764 150.986C27.0764 151.391 27.5551 151.589 28.5123 151.589C28.6491 151.589 28.8542 151.581 29.1277 151.566C29.4088 151.551 29.6063 151.543 29.7431 151.543C30.7003 151.543 31.4676 151.749 32.045 152.169C32.7136 152.65 33.0478 153.36 33.0478 154.283C33.0478 155.077 32.7667 155.749 32.2197 156.291C31.6652 156.84 30.9966 157.115 30.2065 157.115L32.1286 158.71L31.103 159.87L24.7973 154.612L25.8761 153.467C26.9017 154.36 27.5247 154.886 27.7298 155.016C28.4439 155.474 29.2189 155.718 30.0318 155.718C30.4648 155.718 30.8371 155.589 31.1485 155.329C31.46 155.077 31.612 154.741 31.612 154.322C31.612 153.375 30.9662 152.909 29.6899 152.909C29.5151 152.909 29.2492 152.917 28.8998 152.94C28.5503 152.963 28.2844 152.971 28.1097 152.971C26.3775 152.971 25.5114 152.314 25.5114 150.994C25.5114 150.406 25.7393 149.925 26.2028 149.544C26.6662 149.162 27.1904 148.963 27.7906 148.963H30.5408V147.75H24.3035V146.712H33.9443V147.75L33.9519 147.773Z" fill="#58595B"/>
<path d="M43.0003 146.742C42.1722 145.513 41.0326 144.903 39.6043 144.903C38.1761 144.903 37.0365 145.513 36.2084 146.742H37.7962V147.78H36.0261V157.527H34.4838V147.78H33.5038V146.742H34.5294C34.9928 145.773 35.6766 145.002 36.5806 144.43C37.4771 143.857 38.4724 143.575 39.5436 143.575C40.6148 143.575 41.6252 143.849 42.5217 144.414C43.4105 144.979 44.0943 145.75 44.5577 146.742H43.0155H43.0003Z" fill="#58595B"/>
<path d="M48.0524 147.773H44.4057C45.0895 148.445 45.4314 149.368 45.4314 150.543C45.4314 150.963 45.3782 151.36 45.2794 151.749H47.3155V153.055H45.0971V152.291C44.6109 153.444 43.6764 154.192 42.3013 154.535L45.8188 157.542H43.4865L38.0773 152.871L39.0877 151.765C39.7562 152.36 40.1209 152.681 40.1817 152.711C40.6071 153.032 41.0326 153.192 41.4656 153.192C42.119 153.192 42.6888 152.948 43.1902 152.444C43.684 151.948 43.9347 151.375 43.9347 150.719C43.9347 149.33 43.4257 148.345 42.4153 147.773H37.3555V146.735H48.0448V147.773H48.0524Z" fill="#58595B"/>
<path d="M61.4917 147.773H59.7747V157.497H58.2325V150.849C57.5336 150.864 56.9334 151.124 56.432 151.627C55.9306 152.139 55.6874 152.734 55.6874 153.436C55.6874 153.795 55.7634 154.139 55.9078 154.482L54.2516 153.703C54.2516 153.108 54.32 152.604 54.4491 152.185C53.9629 151.292 53.2184 150.841 52.2231 150.841C51.4938 150.841 50.8784 151.093 50.3694 151.589C49.868 152.085 49.6173 152.704 49.6173 153.436C49.6173 154.169 49.868 154.78 50.3694 155.276C50.8784 155.78 51.4938 156.031 52.2231 156.031C52.9904 156.031 53.6362 155.718 54.1528 155.108V156.94C53.4995 157.314 52.8309 157.489 52.1396 157.489C51.0532 157.489 50.1035 157.077 49.3058 156.253C48.5081 155.421 48.113 154.459 48.113 153.352C48.113 152.246 48.5157 151.314 49.321 150.536C50.1263 149.765 51.0759 149.383 52.1775 149.383C53.2791 149.383 54.1756 149.75 54.9505 150.483V151.131C55.7406 149.979 56.827 149.391 58.2173 149.376V147.758H47.4369V146.72H61.4765V147.758L61.4917 147.773Z" fill="#58595B"/>
<path d="M71.353 147.773H68.2001V150.338H64.2648C63.8621 150.338 63.657 150.506 63.657 150.841C63.657 151.162 63.9533 151.353 64.5307 151.414H65.7311C67.8659 151.414 68.9371 152.444 68.9371 154.513C68.9371 155.429 68.58 156.184 67.8583 156.795C67.1441 157.398 66.3236 157.703 65.3968 157.703C64.3712 157.703 63.4975 157.375 62.7833 156.711C62.0692 156.054 61.7121 155.215 61.7121 154.192C61.7121 154.101 61.7121 153.94 61.7273 153.696H63.2468V154.101C63.2468 154.696 63.4595 155.223 63.8925 155.658C64.3256 156.1 64.8346 156.314 65.4272 156.314C66.0197 156.314 66.4832 156.131 66.863 155.757C67.2429 155.383 67.4328 154.902 67.4328 154.322C67.4328 153.574 67.053 153.101 66.3008 152.91C66.0197 152.834 65.3436 152.795 64.2724 152.795C63.695 152.795 63.2088 152.65 62.8289 152.345C62.3883 152.017 62.1604 151.574 62.1604 151.002C62.1604 149.651 62.8973 148.979 64.3636 148.979H66.6959V147.766H61.0588V146.728H71.3454V147.766L71.353 147.773ZM70.4565 151.254C70.4565 151.91 70.1374 152.246 69.4917 152.246C68.8915 152.246 68.5952 151.933 68.5952 151.299C68.5952 150.628 68.8915 150.292 69.4917 150.292C69.7576 150.292 69.9855 150.391 70.1754 150.574C70.3577 150.765 70.4565 150.994 70.4565 151.261V151.254Z" fill="#58595B"/>
<path d="M71.9379 160H70.3273C68.9826 159.038 67.805 158.565 66.7946 158.565L66.7718 157.84C68.8154 157.84 70.54 158.565 71.9379 160Z" fill="#58595B"/>
<path d="M80.7888 147.773H78.107V152.353L77.9778 152.383C77.5599 151.253 76.7698 150.689 75.5923 150.689C74.8477 150.689 74.2248 150.941 73.7234 151.437C73.2144 151.933 72.9712 152.551 72.9712 153.299C72.9712 154.047 73.2144 154.665 73.7006 155.154C74.1868 155.642 74.8022 155.886 75.5391 155.886C76.276 155.886 76.9066 155.65 77.3852 155.169C77.8638 154.688 78.107 154.07 78.107 153.307H79.7403C79.7403 154.49 79.3377 155.49 78.5248 156.291C77.7119 157.1 76.7091 157.504 75.5163 157.504C74.3235 157.504 73.3663 157.1 72.5686 156.283C71.7633 155.467 71.3606 154.474 71.3606 153.307C71.3606 152.139 71.7633 151.139 72.5686 150.315C73.3739 149.49 74.3463 149.078 75.4935 149.078C75.8506 149.078 76.2 149.124 76.5419 149.216V147.781H70.7073V146.743H80.7964V147.781L80.7888 147.773Z" fill="#58595B"/>
<path d="M89.4038 147.773H80.2796V146.735H92.7542V147.773H90.9461V157.55H89.4038V151.032H84.5492C83.9187 151.032 83.4096 151.238 83.0146 151.658C82.6195 152.078 82.422 152.604 82.422 153.23C82.422 153.856 82.6271 154.383 83.0146 154.787C83.4096 155.199 83.9187 155.405 84.5492 155.405C85.1798 155.405 85.6964 155.192 86.0991 154.764C86.5093 154.337 86.7144 153.81 86.7144 153.184C86.7144 152.375 86.3574 151.757 85.6432 151.345H87.4969C87.8692 151.963 88.0591 152.597 88.0591 153.253C88.0591 154.215 87.7021 155.039 86.9955 155.726C86.2814 156.413 85.4533 156.756 84.5036 156.756C83.554 156.756 82.7563 156.405 82.0801 155.711C81.404 155.016 81.0621 154.192 81.0621 153.253C81.0621 152.314 81.404 151.459 82.0801 150.772C82.7639 150.093 83.5844 149.75 84.5492 149.75H89.4038V147.773Z" fill="#58595B"/>
<path d="M114.642 147.773H106.794V149.551C107.523 148.948 108.351 148.651 109.278 148.651C110.38 148.651 111.329 149.04 112.119 149.819C112.902 150.597 113.297 151.544 113.297 152.65C113.297 153.757 112.917 154.742 112.15 155.596C111.383 156.451 110.448 156.879 109.346 156.879C108.731 156.879 108.139 156.734 107.554 156.436V154.635C108.04 155.1 108.602 155.329 109.233 155.329C109.916 155.329 110.516 155.062 111.033 154.535C111.55 154.009 111.808 153.398 111.808 152.719C111.808 152.04 111.55 151.46 111.041 150.971C110.539 150.475 109.947 150.223 109.278 150.223C108.686 150.223 108.123 150.437 107.622 150.849C107.075 151.284 106.794 151.795 106.794 152.383V157.55H105.252V155.97C104.522 156.573 103.694 156.871 102.767 156.871C101.658 156.871 100.716 156.474 99.926 155.696C99.1283 154.909 98.7408 153.963 98.7408 152.856C98.7408 151.75 99.1207 150.765 99.888 149.918C100.655 149.071 101.59 148.651 102.691 148.651C103.36 148.651 104.021 148.834 104.659 149.193V151.147C104.165 150.536 103.535 150.223 102.775 150.223C102.068 150.223 101.468 150.475 100.974 150.979C100.481 151.475 100.23 152.078 100.23 152.788C100.23 153.497 100.465 154.123 100.952 154.597C101.43 155.07 102.038 155.299 102.767 155.299C103.497 155.299 104.059 155.077 104.53 154.642C104.993 154.2 105.236 153.627 105.236 152.925V147.781H97.8367V146.743H114.627V147.781L114.642 147.773Z" fill="#58595B"/>
<path d="M128.172 147.773H126.448V157.497H124.906V150.849C124.207 150.864 123.607 151.124 123.105 151.627C122.604 152.139 122.361 152.734 122.361 153.436C122.361 153.795 122.429 154.139 122.581 154.482L120.932 153.703C120.932 153.108 120.993 152.604 121.13 152.185C120.636 151.292 119.899 150.841 118.904 150.841C118.182 150.841 117.559 151.093 117.058 151.589C116.556 152.085 116.298 152.704 116.298 153.436C116.298 154.169 116.549 154.78 117.058 155.276C117.559 155.78 118.175 156.031 118.904 156.031C119.679 156.031 120.325 155.718 120.841 155.108V156.94C120.188 157.314 119.512 157.489 118.828 157.489C117.741 157.489 116.799 157.077 116.002 156.253C115.204 155.421 114.801 154.459 114.801 153.352C114.801 152.246 115.204 151.314 116.009 150.536C116.815 149.765 117.772 149.383 118.873 149.383C119.975 149.383 120.872 149.75 121.646 150.483V151.131C122.437 149.979 123.523 149.391 124.913 149.376V147.758H114.133V146.72H128.18V147.758L128.172 147.773Z" fill="#58595B"/>
<path d="M125.605 146.063C125.187 146.147 124.822 146.406 124.511 146.857C123.895 146.529 123.348 146.025 122.847 145.353C122.285 144.575 121.859 144.071 121.578 143.842C120.97 143.369 120.097 143.079 118.957 142.972L120.051 142.002C120.978 142.125 121.753 142.43 122.376 142.926C122.657 143.147 123.151 143.674 123.834 144.498C124.412 145.2 125.004 145.727 125.597 146.063H125.605Z" fill="#58595B"/>
<path d="M139.758 147.773H137.836V157.52H136.294V150.788H133.992C134.546 151.536 134.82 152.353 134.82 153.253C134.82 154.421 134.417 155.406 133.612 156.207C132.807 157.009 131.827 157.405 130.657 157.405C129.76 157.405 128.978 157.169 128.286 156.711V153.788C128.377 154.36 128.643 154.833 129.092 155.207C129.54 155.581 130.049 155.772 130.634 155.772C131.302 155.772 131.895 155.52 132.396 155.009C132.905 154.497 133.156 153.91 133.156 153.23C133.156 152.643 132.936 152.093 132.495 151.567C132.054 151.04 131.545 150.78 130.96 150.78H129.441V149.559H136.286V147.766H127.808V146.728H139.75V147.766L139.758 147.773Z" fill="#58595B"/>
<path d="M140.07 159.191C140.905 157.634 141.467 156.436 141.749 155.596C142.136 154.413 142.334 153.093 142.334 151.642C142.334 150.192 142.144 148.834 141.779 147.712C141.536 146.994 140.974 145.796 140.1 144.117H141.331C142.288 145.582 142.941 146.75 143.298 147.62C143.8 148.849 144.058 150.169 144.058 151.574C144.058 153.054 143.8 154.413 143.298 155.642C142.957 156.497 142.28 157.68 141.285 159.191H140.077H140.07Z" fill="#58595B"/>
<path d="M81.7078 50.0234C79.8769 50.0234 78.3878 48.5274 78.3878 46.688C78.3878 44.8486 79.8769 43.345 81.7078 43.345C83.5387 43.345 85.0354 44.8486 85.0354 46.688C85.0354 48.5274 83.5387 50.0234 81.7078 50.0234ZM81.7078 43.5205C79.9756 43.5205 78.5702 44.9402 78.5702 46.6804C78.5702 48.4206 79.9756 49.8402 81.7078 49.8402C83.44 49.8402 84.8606 48.4282 84.8606 46.6804C84.8606 44.9325 83.4476 43.5205 81.7078 43.5205Z" fill="white"/>
<path d="M81.7079 50.5729C79.573 50.5729 77.8409 48.8327 77.8409 46.688C77.8409 44.5433 79.573 42.7954 81.7079 42.7954C83.8427 42.7954 85.5824 44.5433 85.5824 46.688C85.5824 48.8327 83.8427 50.5729 81.7079 50.5729ZM81.7079 42.9786C79.6718 42.9786 78.0232 44.6425 78.0232 46.688C78.0232 48.7335 79.6794 50.3897 81.7079 50.3897C83.7363 50.3897 85.4001 48.7259 85.4001 46.688C85.4001 44.6501 83.7439 42.9786 81.7079 42.9786ZM81.7079 49.4815C80.1732 49.4815 78.9273 48.2297 78.9273 46.688C78.9273 45.1462 80.1732 43.8869 81.7079 43.8869C83.2425 43.8869 84.496 45.1386 84.496 46.688C84.496 48.2374 83.2501 49.4815 81.7079 49.4815ZM81.7079 44.07C80.2796 44.07 79.1096 45.2454 79.1096 46.688C79.1096 48.1305 80.272 49.2983 81.7079 49.2983C83.1437 49.2983 84.3137 48.1305 84.3137 46.688C84.3137 45.2454 83.1437 44.07 81.7079 44.07Z" fill="white"/>
<path d="M84.9899 54.3663H78.2664V53.1527H80.6823V51.5652H76.8533V47.8252H75.2807V50.2524H74.0651V43.4365H75.2731V45.8713H76.8685V41.8185H80.6899V40.2233H78.4867V39.0173H84.9443V40.2309H82.6348V41.8185H86.5701V45.8713H88.1503V43.4365H89.3583V50.1455H88.1503V47.8252H86.5701V51.5575H82.6348V53.1451H85.0051V54.3587L84.9899 54.3663ZM78.4487 54.1831H84.8076V53.3359H82.4372V51.382H86.3726V47.6497H88.3175V49.97H89.1684V43.6197H88.3175V46.0545H86.3726V42.0016H82.4372V40.0477H84.7468V39.2005H78.6538V40.0477H80.857V41.994H77.028V46.0469H75.0755V43.6121H74.2323V50.0616H75.0831V47.6344H77.0204V51.3743H80.8494V53.3283H78.4335V54.1831H78.4487ZM81.7079 50.6951C79.5123 50.6951 77.727 48.9014 77.727 46.688C77.727 44.4746 79.5123 42.6809 81.7079 42.6809C83.9035 42.6809 85.6964 44.4746 85.6964 46.688C85.6964 48.9014 83.9111 50.6951 81.7079 50.6951ZM81.7079 42.8641C79.6111 42.8641 77.9093 44.5814 77.9093 46.688C77.9093 48.7946 79.6111 50.5119 81.7079 50.5119C83.8047 50.5119 85.5141 48.7946 85.5141 46.688C85.5141 44.5814 83.8047 42.8641 81.7079 42.8641Z" fill="white"/>
<path d="M82.08 53.8166H81.2291V51.0308H81.3279C81.5558 51.0613 81.7761 51.0613 81.9888 51.046H82.0876V53.8166H82.08ZM81.4039 53.6335H81.8977V51.2368C81.7381 51.2368 81.571 51.2368 81.4039 51.2368V53.6411V53.6335ZM80.8721 51.0155H77.3925V47.4969L77.5673 48.0388C77.9927 49.3516 79.0259 50.3973 80.3327 50.8323L80.8645 51.0079L80.8721 51.0155ZM77.5749 50.8323H79.8312C78.836 50.3744 78.0307 49.5577 77.5749 48.5578V50.8323ZM86.0154 51.0155H82.551L83.0828 50.84C84.382 50.4049 85.4076 49.3669 85.8406 48.0617L86.0154 47.5275V51.0155ZM83.5919 50.8323H85.8406V48.5731C85.3848 49.573 84.5871 50.3744 83.5919 50.8323ZM81.7077 43.4135C79.9148 43.4135 78.4486 44.8866 78.4486 46.6879C78.4486 48.4892 79.9072 49.9622 81.7077 49.9622C83.5083 49.9622 84.9669 48.4892 84.9669 46.6879C84.9669 44.8866 83.5007 43.4135 81.7077 43.4135ZM88.8035 47.2832H86.0154V47.184C86.0457 47.0237 86.0533 46.8634 86.0533 46.6955C86.0533 46.6345 86.0533 46.581 86.0533 46.52V46.4284H88.8035V47.2832ZM86.2205 47.1H88.6212V46.6039H86.2357C86.2357 46.6039 86.2357 46.665 86.2357 46.6879C86.2357 46.8253 86.2357 46.9627 86.2205 47.0924V47.1ZM77.4001 47.2832H74.6044V46.4284H77.3697V46.52C77.3697 46.581 77.3697 46.6345 77.3697 46.6955C77.3697 46.8558 77.3773 47.0237 77.4001 47.184V47.2832ZM74.7943 47.1H77.2026C77.195 46.9627 77.1874 46.8329 77.1874 46.6955C77.1874 46.665 77.1874 46.6345 77.1874 46.6116H74.7943V47.1077V47.1ZM86.023 45.8559L85.8482 45.3217C85.4228 44.0241 84.3972 42.9938 83.1132 42.5587L82.589 42.3832H86.023V45.8636V45.8559ZM83.607 42.5587C84.5947 43.0167 85.3848 43.8181 85.8406 44.8103V42.5587H83.607ZM77.4153 45.8407V42.3755H80.8569L80.3327 42.5511C79.0487 42.9861 78.0231 44.0165 77.5901 45.314L77.4153 45.8407ZM77.5901 42.5587V44.8027C78.0459 43.8104 78.8436 43.009 79.8312 42.5511H77.5901V42.5587ZM81.2367 42.3526V39.582H82.0876V42.345H81.9888C81.7761 42.3221 81.5558 42.3221 81.3279 42.345H81.2291L81.2367 42.3526ZM81.4191 39.7728V42.1618C81.5862 42.1466 81.7533 42.1466 81.9129 42.1618V39.7805H81.4191V39.7728Z" fill="white"/>
<path d="M81.7078 43.4287C79.9224 43.4287 78.4789 44.8865 78.4789 46.6802C78.4789 48.4738 79.9224 49.924 81.7078 49.924C83.4931 49.924 84.9442 48.4662 84.9442 46.6802C84.9442 44.8941 83.4855 43.4287 81.7078 43.4287Z" fill="#2E3192"/>
<path d="M88.2262 43.5281V45.9629H86.4636V41.91H82.5283V40.1393H84.8378V39.1089H78.5626V40.1393H80.7657V41.9024H76.9368V45.9552H75.1666V43.5205H74.141V50.1531H75.1742V47.726H76.9292V51.4659H80.7582V53.2366H78.3422V54.267H84.8834V53.2366H82.5131V51.4659H86.4485V47.7336H88.211V50.0539H89.2366V43.5205H88.211L88.2262 43.5281ZM81.7002 50.6034C79.5502 50.6034 77.8104 48.8479 77.8104 46.688C77.8104 44.528 79.5502 42.7725 81.7002 42.7725C83.8502 42.7725 85.5976 44.528 85.5976 46.688C85.5976 48.8479 83.8502 50.6034 81.7002 50.6034Z" fill="#2E3192"/>
</svg>
