<svg width="175" height="174" viewBox="0 0 175 174" fill="none" xmlns="http://www.w3.org/2000/svg">
<path opacity="0.08" d="M89.6751 174C136.7 174 174.82 135.73 174.82 88.5206C174.82 41.3116 136.7 3.04102 89.6751 3.04102C42.6507 3.04102 4.52979 41.3116 4.52979 88.5206C4.52979 135.73 42.6507 174 89.6751 174Z" fill="#3B6FA3"/>
<path d="M86.1343 170.959C133.252 170.959 171.448 132.689 171.448 85.4796C171.448 38.2705 133.252 0 86.1343 0C39.0167 0 0.820312 38.2705 0.820312 85.4796C0.820312 132.689 39.0167 170.959 86.1343 170.959Z" fill="#DCFFE2"/>
<path d="M81.0139 122.024C81.3028 121.35 81.6984 120.763 82.2023 120.259C82.7044 119.757 83.2943 119.36 83.9684 119.072C84.6426 118.783 85.3648 118.639 86.1353 118.639C86.9057 118.639 87.628 118.783 88.3021 119.072C88.9763 119.36 89.5644 119.756 90.0683 120.259C90.5705 120.763 90.9677 121.35 91.2566 122.024C91.5455 122.698 91.69 123.419 91.69 124.189C91.69 124.959 91.5455 125.681 91.2566 126.354C90.9677 127.028 90.5722 127.616 90.0683 128.119C89.5661 128.623 88.9763 129.018 88.3021 129.307C87.628 129.596 86.9057 129.74 86.1353 129.74C85.3648 129.74 84.6426 129.596 83.9684 129.307C83.2943 129.018 82.7062 128.623 82.2023 128.119C81.6984 127.618 81.3028 127.028 81.0139 126.354C80.725 125.681 80.5806 124.959 80.5806 124.189C80.5806 123.419 80.725 122.698 81.0139 122.024ZM94.2266 34.8206C94.2266 31.6604 93.6212 29.2906 92.4123 27.7096C91.2033 26.1303 89.1104 25.3398 86.1336 25.3398C83.1567 25.3398 81.0638 26.1303 79.8548 27.7096C78.6459 29.2906 78.0405 31.6604 78.0405 34.8206V63.3179L82.2263 105.757V105.645C82.4121 107.06 82.897 108.025 83.6778 108.546C84.4585 109.067 85.2771 109.326 86.1336 109.326C86.99 109.326 87.7983 109.075 88.5618 108.574C89.3237 108.072 89.7983 107.133 89.984 105.757L94.2249 63.3179V34.8206H94.2266Z" fill="#009854"/>
</svg>
