<svg width="90" height="90" viewBox="0 0 90 90" fill="none" xmlns="http://www.w3.org/2000/svg">
<g clip-path="url(#clip0_2199_7073)">
<path d="M89.2163 46.5375L87.2324 49.0976C86.6377 49.8659 86.5022 50.8949 86.8808 51.7903L88.1381 54.7708C88.616 55.9028 88.2652 57.2158 87.2863 57.9581L84.7076 59.9141C83.9347 60.5005 83.5375 61.4591 83.6684 62.4204L84.1063 65.6281C84.2724 66.8455 83.5932 68.0203 82.4547 68.4833L79.4576 69.7025C78.5575 70.0691 77.9247 70.8921 77.8031 71.8562L77.3976 75.0677C77.2436 76.2851 76.2851 77.2445 75.0667 77.3986L71.8553 77.804C70.8912 77.9256 70.0672 78.5584 69.7016 79.4585L68.4824 82.4556C68.0193 83.5932 66.8446 84.2734 65.6272 84.1063L62.4194 83.6684C61.4581 83.5366 60.4996 83.9338 59.9132 84.7076L57.9572 87.2863C57.2139 88.2652 55.9019 88.616 54.7698 88.1381L51.7894 86.8808C50.894 86.5031 49.8649 86.6377 49.0966 87.2324L46.5366 89.2163C45.5669 89.9679 44.2122 89.9679 43.2425 89.2163L40.6824 87.2324C39.9141 86.6377 38.8851 86.5022 37.9897 86.8808L35.0092 88.1381C33.8772 88.616 32.5642 88.2652 31.8219 87.2863L29.8659 84.7076C29.2795 83.9347 28.3209 83.5375 27.3596 83.6684L24.1519 84.1063C22.9345 84.2724 21.7597 83.5932 21.2967 82.4547L20.0775 79.4576C19.7109 78.5575 18.8879 77.9247 17.9238 77.8031L14.7123 77.3976C13.4949 77.2436 12.5355 76.2851 12.3814 75.0667L11.976 71.8553C11.8544 70.8912 11.2216 70.0672 10.3215 69.7016L7.32439 68.4824C6.18678 68.0193 5.50663 66.8446 5.67365 65.6272L6.11162 62.4194C6.24338 61.4581 5.84624 60.4996 5.07237 59.9132L2.49373 57.9572C1.5148 57.2139 1.16405 55.9019 1.64192 54.7698L2.89923 51.7894C3.27688 50.894 3.14234 49.8649 2.54755 49.0966L0.5637 46.5366C-0.1879 45.5669 -0.1879 44.2122 0.5637 43.2425L2.54755 40.6824C3.14234 39.9141 3.27781 38.8851 2.89923 37.9897L1.64192 35.0092C1.16405 33.8772 1.5148 32.5642 2.49373 31.8219L5.07237 29.8659C5.84531 29.2795 6.24245 28.3209 6.11162 27.3596L5.67365 24.1519C5.50756 22.9345 6.18678 21.7597 7.32532 21.2967L10.3224 20.0775C11.2225 19.7109 11.8553 18.8879 11.9769 17.9238L12.3824 14.7123C12.5364 13.4949 13.4949 12.5355 14.7133 12.3814L17.9247 11.976C18.8888 11.8544 19.7128 11.2216 20.0784 10.3215L21.2977 7.32439C21.7607 6.18678 22.9354 5.50663 24.1528 5.67365L27.3606 6.11162C28.3219 6.24338 29.2804 5.84624 29.8668 5.07237L31.8228 2.49373C32.5661 1.5148 33.8781 1.16405 35.0102 1.64192L37.9906 2.89923C38.886 3.27688 39.9151 3.14234 40.6834 2.54755L43.2434 0.5637C44.2131 -0.1879 45.5678 -0.1879 46.5375 0.5637L49.0976 2.54755C49.8659 3.14234 50.8949 3.27781 51.7903 2.89923L54.7708 1.64192C55.9028 1.16405 57.2158 1.5148 57.9581 2.49373L59.9141 5.07237C60.5005 5.84531 61.4591 6.24245 62.4204 6.11162L65.6281 5.67365C66.8455 5.50756 68.0203 6.18678 68.4833 7.32532L69.7025 10.3224C70.0691 11.2225 70.8921 11.8553 71.8562 11.9769L75.0677 12.3824C76.2851 12.5364 77.2445 13.4949 77.3986 14.7133L77.804 17.9247C77.9256 18.8888 78.5584 19.7128 79.4585 20.0784L82.4556 21.2977C83.5932 21.7607 84.2734 22.9354 84.1063 24.1528L83.6684 27.3606C83.5366 28.3219 83.9338 29.2804 84.7076 29.8668L87.2863 31.8228C88.2652 32.5661 88.616 33.8781 88.1381 35.0102L86.8808 37.9906C86.5031 38.886 86.6377 39.9151 87.2324 40.6834L89.2163 43.2434C89.9679 44.2131 89.9679 45.5678 89.2163 46.5375Z" fill="#FB3F4A"/>
<path d="M54.3346 32.4142C55.1157 31.6332 56.382 31.6332 57.163 32.4142C57.9441 33.1953 57.9441 34.4616 57.1631 35.2426L35.2427 57.163C34.4617 57.944 33.1954 57.944 32.4143 57.163C31.6333 56.3819 31.6333 55.1156 32.4143 54.3345L54.3346 32.4142Z" fill="white"/>
<path d="M35.2426 32.4142C34.4616 31.6332 33.1953 31.6332 32.4142 32.4142C31.6332 33.1953 31.6332 34.4616 32.4142 35.2426L54.3345 57.163C55.1156 57.944 56.3819 57.944 57.163 57.163C57.944 56.3819 57.944 55.1156 57.163 54.3345L35.2426 32.4142Z" fill="white"/>
</g>
<defs>
<clipPath id="clip0_2199_7073">
<rect width="90" height="90" fill="white"/>
</clipPath>
</defs>
</svg>
