<svg width="35" height="40" viewBox="0 0 35 40" fill="none" xmlns="http://www.w3.org/2000/svg">
<path d="M0.0953334 6.87474C0.0606036 6.56234 0.246161 6.26738 0.542596 6.16376L18.0679 0.0382247C18.5056 -0.114761 18.9632 0.210521 18.9632 0.674653V9.57111C18.9632 9.76053 18.8836 9.94121 18.7438 10.0689L3.11475 24.3551C2.70828 24.7266 2.05242 24.4795 1.99154 23.9318L0.0953334 6.87474Z" fill="#318D0E"/>
<path d="M0.0176046 7.05586C-0.0311712 6.61711 0.266579 6.21504 0.700098 6.13426L24.5478 1.69057C25.0843 1.59062 25.5724 2.02022 25.5422 2.56564L24.8933 14.2775C24.876 14.5905 24.6865 14.868 24.4015 14.9978L3.08958 24.7036C2.56847 24.9409 1.96788 24.5994 1.90456 24.0298L0.0176046 7.05586Z" fill="#39A411"/>
<path d="M0.00909576 7.04234C-0.0445684 6.55963 0.319455 6.13155 0.804021 6.10752L31.0799 4.60837C31.5848 4.58337 31.9976 5.0064 31.9609 5.51115L30.8492 20.7978C30.82 21.1988 30.5119 21.5234 30.1133 21.5728L2.85772 24.9541C2.39234 25.0119 1.96957 24.6777 1.9177 24.2111L0.00909576 7.04234Z" fill="#40BB14"/>
<path d="M0.0268936 7.03201C-0.0328932 6.49421 0.42194 6.04019 0.958957 6.10162L34.2538 9.91062C34.7122 9.96306 35.0428 10.3752 34.9955 10.8347L32.9989 30.1095C32.9478 30.603 32.4839 30.9457 31.9978 30.8491L2.61644 25.009C2.25656 24.9375 1.98442 24.6408 1.94384 24.2757L0.0268936 7.03201Z" fill="#47D217"/>
<path d="M0.00315729 7.0015C-0.0501171 6.37273 0.580474 5.91059 1.16307 6.15148L27.7319 17.1357C28.0669 17.2742 28.2757 17.6117 28.2502 17.9736L26.7594 39.2153C26.7152 39.8467 26.0171 40.2058 25.4787 39.8739L1.89987 25.3432C1.67247 25.2031 1.52498 24.9632 1.50242 24.6968L0.00315729 7.0015Z" fill="#76E155"/>
</svg>
