<svg width="90" height="90" viewBox="0 0 90 90" fill="none" xmlns="http://www.w3.org/2000/svg">
<path d="M89.4349 46.6515L87.4462 49.2179C86.85 49.9881 86.7142 51.0196 87.0937 51.9172L88.3541 54.905C88.8331 56.0398 88.4815 57.356 87.5002 58.1001L84.9152 60.0609C84.1404 60.6488 83.7422 61.6097 83.8734 62.5733L84.3124 65.7889C84.4789 67.0093 83.7981 68.1869 82.6567 68.6511L79.6523 69.8733C78.75 70.2408 78.1156 71.0658 77.9938 72.0323L77.5873 75.2516C77.4329 76.472 76.472 77.4338 75.2507 77.5882L72.0313 77.9947C71.0649 78.1166 70.2389 78.7509 69.8724 79.6532L68.6502 82.6577C68.186 83.7981 67.0084 84.4799 65.788 84.3124L62.5724 83.8734C61.6087 83.7413 60.6479 84.1394 60.06 84.9152L58.0992 87.5002C57.3541 88.4815 56.0389 88.8331 54.904 88.3541L51.9163 87.0937C51.0187 86.7151 49.9871 86.85 49.2169 87.4462L46.6506 89.4349C45.6786 90.1884 44.3205 90.1884 43.3485 89.4349L40.7821 87.4462C40.0119 86.85 38.9804 86.7142 38.0828 87.0937L35.095 88.3541C33.9602 88.8331 32.644 88.4815 31.8999 87.5002L29.9391 84.9152C29.3512 84.1404 28.3903 83.7422 27.4267 83.8734L24.2111 84.3124C22.9907 84.4789 21.8131 83.7981 21.3489 82.6567L20.1267 79.6523C19.7592 78.75 18.9342 78.1156 17.9677 77.9938L14.7484 77.5873C13.528 77.4329 12.5662 76.472 12.4118 75.2507L12.0053 72.0313C11.8834 71.0649 11.2491 70.2389 10.3468 69.8724L7.34234 68.6502C6.20194 68.186 5.52012 67.0084 5.68755 65.788L6.1266 62.5724C6.25868 61.6087 5.86057 60.6479 5.0848 60.06L2.49985 58.0992C1.51851 57.3541 1.1669 56.0389 1.64594 54.904L2.90633 51.9163C3.28491 51.0187 3.15004 49.9871 2.5538 49.2169L0.565081 46.6506C-0.18836 45.6786 -0.18836 44.3205 0.565081 43.3485L2.5538 40.7821C3.15004 40.0119 3.28584 38.9804 2.90633 38.0828L1.64594 35.095C1.1669 33.9602 1.51851 32.644 2.49985 31.8999L5.0848 29.9391C5.85964 29.3512 6.25775 28.3903 6.1266 27.4267L5.68755 24.2111C5.52105 22.9907 6.20194 21.8131 7.34327 21.3489L10.3477 20.1267C11.25 19.7592 11.8844 18.9342 12.0062 17.9677L12.4127 14.7484C12.5671 13.528 13.528 12.5662 14.7493 12.4118L17.9687 12.0053C18.9351 11.8834 19.7611 11.2491 20.1276 10.3468L21.3498 7.34234C21.814 6.20194 22.9916 5.52012 24.212 5.68755L27.4276 6.1266C28.3913 6.25868 29.3521 5.86057 29.94 5.0848L31.9008 2.49985C32.6459 1.51851 33.9612 1.1669 35.096 1.64594L38.0837 2.90633C38.9813 3.28491 40.0129 3.15004 40.7831 2.5538L43.3494 0.565081C44.3214 -0.18836 45.6795 -0.18836 46.6515 0.565081L49.2179 2.5538C49.9881 3.15004 51.0196 3.28584 51.9172 2.90633L54.905 1.64594C56.0398 1.1669 57.356 1.51851 58.1001 2.49985L60.0609 5.0848C60.6488 5.85964 61.6097 6.25775 62.5733 6.1266L65.7889 5.68755C67.0093 5.52105 68.1869 6.20194 68.6511 7.34327L69.8733 10.3477C70.2408 11.25 71.0658 11.8844 72.0323 12.0062L75.2516 12.4127C76.472 12.5671 77.4338 13.528 77.5882 14.7493L77.9947 17.9687C78.1166 18.9351 78.7509 19.7611 79.6532 20.1276L82.6577 21.3498C83.7981 21.814 84.4799 22.9916 84.3124 24.212L83.8734 27.4276C83.7413 28.3913 84.1394 29.3521 84.9152 29.94L87.5002 31.9008C88.4815 32.6459 88.8331 33.9612 88.3541 35.096L87.0937 38.0837C86.7151 38.9813 86.85 40.0129 87.4462 40.7831L89.4349 43.3494C90.1884 44.3214 90.1884 45.6795 89.4349 46.6515Z" fill="#FF9500"/>
<path d="M41.1104 18.1099C41.1104 15.9007 42.9012 14.1099 45.1104 14.1099C47.3195 14.1099 49.1104 15.9007 49.1104 18.1099V59.7099C49.1104 61.919 47.3195 63.7099 45.1104 63.7099C42.9012 63.7099 41.1104 61.919 41.1104 59.7099V18.1099Z" fill="white"/>
<path d="M41.1104 73.0099C41.1104 71.2978 42.4983 69.9099 44.2104 69.9099H46.0104C47.7224 69.9099 49.1104 71.2978 49.1104 73.0099C49.1104 74.7219 47.7224 76.1099 46.0104 76.1099H44.2104C42.4983 76.1099 41.1104 74.7219 41.1104 73.0099Z" fill="white"/>
</svg>
